<?xml version="1.0" standalone="no"?>
<!DOCTYPE svg PUBLIC "-//W3C//DTD SVG 20010904//EN"
 "http://www.w3.org/TR/2001/REC-SVG-20010904/DTD/svg10.dtd">
<svg version="1.0" xmlns="http://www.w3.org/2000/svg"
 width="500.000000pt" height="500.000000pt" viewBox="0 0 500.000000 500.000000"
 preserveAspectRatio="xMidYMid meet">
<metadata>
Created by potrace 1.14, written by Peter Selinger 2001-2017
</metadata>
<g transform="translate(0.000000,500.000000) scale(0.100000,-0.100000)"
fill="#000000" stroke="none">
<path d="M2280 4405 c-200 -28 -416 -89 -568 -160 -306 -145 -521 -389 -631
-720 -51 -152 -71 -276 -71 -436 0 -139 18 -257 54 -353 13 -34 69 -137 125
-231 393 -654 476 -1059 317 -1533 l-35 -102 758 0 759 0 -5 43 c-8 68 14 186
48 254 37 77 110 144 186 173 82 31 185 35 366 15 177 -19 187 -17 228 48 19
29 20 42 13 142 -12 190 -8 211 57 327 18 33 19 42 9 74 -12 35 -11 38 20 67
36 33 36 46 5 157 -27 96 15 158 120 180 66 14 95 45 77 84 -5 12 -79 128
-163 257 -145 222 -153 237 -157 291 -3 43 2 75 22 132 32 94 32 119 2 237
-13 53 -27 143 -30 205 -17 275 -100 445 -281 577 -167 120 -387 213 -610 257
-144 29 -459 36 -615 15z m281 -124 c22 -21 39 -48 39 -59 0 -22 7 -24 113
-36 38 -5 47 -3 47 10 0 9 15 31 34 50 30 30 40 34 85 34 44 0 56 -5 89 -34
33 -31 37 -40 37 -83 0 -60 -22 -96 -75 -123 l-40 -20 0 -160 c0 -140 2 -160
16 -160 26 0 70 -37 84 -69 11 -28 15 -30 54 -26 22 3 104 10 181 15 76 6 140
12 141 13 1 1 9 19 17 39 28 67 111 97 177 63 44 -23 60 -53 60 -113 0 -48 -4
-58 -34 -88 -27 -27 -42 -34 -72 -34 l-39 0 -25 -93 -25 -92 32 -28 c57 -50
57 -125 -2 -184 -27 -27 -40 -33 -76 -33 -55 0 -102 28 -120 70 -14 31 -15 31
-64 26 -27 -3 -90 -8 -140 -11 -134 -9 -143 -12 -150 -45 -10 -46 -67 -90
-117 -90 -51 0 -102 30 -118 70 -14 35 -4 34 -194 20 -211 -15 -226 -18 -226
-40 0 -26 -44 -75 -80 -90 -70 -29 -157 22 -167 97 -12 87 38 143 127 143 46
0 56 -4 86 -34 19 -19 34 -42 34 -51 0 -14 7 -16 38 -11 20 3 112 11 205 17
153 11 167 14 167 31 0 45 61 98 113 98 22 0 25 6 37 73 7 39 16 82 21 95 6
16 5 22 -5 22 -8 0 -27 15 -43 33 l-28 33 -92 -27 c-51 -15 -95 -24 -98 -21
-3 3 -5 -13 -5 -36 0 -88 -101 -148 -179 -108 -62 33 -88 113 -57 175 18 34
57 61 89 61 23 0 25 4 30 73 5 59 3 74 -10 82 -9 6 -29 21 -45 35 -35 30 -47
93 -28 140 14 33 58 70 84 70 12 0 16 11 16 48 0 45 -2 48 -40 64 -28 11 -45
27 -57 53 l-18 38 -74 -7 c-41 -3 -96 -6 -123 -6 -42 0 -48 -3 -48 -20 0 -30
-28 -69 -62 -86 -27 -14 -29 -19 -24 -52 3 -20 7 -52 8 -69 2 -25 7 -33 21
-33 28 0 72 -26 91 -54 21 -33 21 -109 0 -142 -23 -34 -65 -54 -114 -54 -32 0
-48 7 -78 34 -34 32 -37 39 -37 90 0 47 4 59 29 85 16 17 37 33 46 36 14 4 15
14 9 58 -4 28 -8 60 -8 70 -1 11 -9 17 -26 17 -15 0 -41 14 -63 34 -34 32 -37
38 -37 91 0 53 3 59 37 91 31 28 46 34 80 34 53 0 101 -28 119 -69 13 -28 18
-31 60 -31 25 0 80 3 122 6 68 6 77 9 77 27 0 10 17 37 39 58 34 34 44 39 86
39 42 0 52 -5 86 -39z m529 -202 c39 -18 69 -37 67 -43 -5 -15 -25 -10 -91 20
-31 14 -56 32 -56 40 0 19 -1 19 80 -17z m-740 -145 c0 -22 -13 -17 -96 37
-44 29 -96 62 -116 75 -24 15 -35 29 -32 38 4 11 36 -5 125 -61 65 -42 119
-82 119 -89z m1008 141 c86 -72 52 -208 -55 -222 -87 -12 -143 38 -143 127 0
46 4 56 34 86 30 30 40 34 84 34 39 0 57 -6 80 -25z m-1502 -31 c1 -5 -43 -49
-97 -98 -72 -64 -103 -86 -111 -78 -8 8 6 26 48 64 32 29 77 70 99 90 38 36
56 42 61 22z m-249 -208 c28 -31 33 -43 33 -87 0 -45 -4 -55 -34 -85 -30 -30
-40 -34 -85 -34 -62 0 -98 21 -117 67 -19 45 -17 82 6 121 44 71 141 80 197
18z m1483 -71 c-61 -61 -76 -72 -88 -62 -12 10 -2 24 64 84 52 48 82 69 88 63
7 -7 -15 -35 -64 -85z m314 41 c30 -51 31 -56 12 -56 -15 0 -67 80 -59 92 9
16 22 6 47 -36z m-1157 -187 c52 -43 71 -65 64 -72 -7 -7 -16 -6 -28 4 -112
93 -132 112 -127 120 8 14 11 13 91 -52z m-313 22 c6 -9 -81 -131 -94 -131
-23 0 -15 22 26 79 45 60 58 70 68 52z m-526 -135 c-29 -58 -58 -106 -65 -106
-22 0 -15 19 43 127 36 67 60 101 66 95 6 -6 -10 -48 -44 -116z m387 -8 c71
-32 86 -146 26 -200 -17 -15 -42 -30 -56 -34 -53 -13 -116 14 -143 62 -8 14
-16 13 -88 -4 -43 -11 -91 -23 -105 -26 -21 -5 -28 -13 -33 -45 -9 -60 -61
-101 -127 -101 -45 0 -55 4 -85 34 -30 30 -34 40 -34 85 0 59 19 95 61 117 59
30 146 4 171 -51 6 -13 15 -22 21 -18 18 11 191 52 199 47 4 -3 8 14 8 36 0
34 6 48 34 76 29 29 41 34 80 34 25 0 57 -5 71 -12z m501 -233 c-37 -45 -50
-53 -60 -36 -9 14 75 104 87 92 7 -7 -2 -25 -27 -56z m-352 -13 c47 -35 63
-51 55 -59 -8 -8 -29 1 -75 35 -35 25 -64 52 -64 59 0 21 14 16 84 -35z m-254
3 c0 -2 -36 -84 -80 -182 -47 -106 -85 -179 -95 -181 -8 -2 -15 -1 -15 1 0 3
32 76 71 163 39 88 75 169 80 182 7 18 39 33 39 17z m-311 -235 c46 -128 46
-130 27 -130 -16 0 -101 233 -91 250 11 19 20 2 64 -120z m621 7 c0 -14 -404
-219 -414 -210 -3 4 -6 10 -6 15 0 9 388 207 408 207 6 1 12 -5 12 -12z m690
-16 c0 -16 -142 -192 -152 -189 -19 7 -12 18 61 112 65 84 91 106 91 77z
m-388 -118 c43 -54 49 -73 27 -73 -4 0 -30 30 -59 66 -35 44 -49 71 -45 82 6
15 8 15 18 2 7 -9 33 -43 59 -77z m-797 -17 c65 -27 93 -112 60 -176 -23 -44
-53 -60 -113 -60 -48 0 -58 4 -88 34 -30 30 -34 41 -34 84 0 57 25 96 74 118
40 17 59 17 101 0z m1009 -81 c70 -65 55 -176 -29 -211 -44 -18 -69 -18 -109
1 -43 20 -66 63 -66 120 0 40 5 52 34 81 30 30 40 34 89 34 44 0 59 -5 81 -25z
m-743 -230 c2 -24 -18 -17 -98 35 -88 56 -101 69 -87 83 6 6 184 -107 185
-118z m534 66 c-6 -5 -68 -34 -140 -64 -89 -38 -132 -52 -137 -44 -4 6 -6 13
-4 14 16 16 273 118 281 112 6 -6 6 -12 0 -18z m-319 -75 c30 -30 34 -40 34
-89 0 -49 -4 -59 -31 -86 -17 -17 -37 -31 -45 -31 -11 0 -12 -4 -4 -17 9 -17
60 -239 63 -275 1 -13 10 -18 35 -18 25 0 43 -9 68 -34 30 -30 34 -40 34 -85
0 -59 -19 -95 -61 -117 -68 -35 -153 -1 -178 72 -19 53 -8 90 38 134 l37 35
-31 144 -31 144 -43 13 c-53 15 -77 37 -92 81 -15 48 -4 97 32 133 27 26 38
30 86 30 49 0 59 -4 89 -34z m260 -244 c-155 -293 -145 -277 -158 -264 -16 16
261 535 277 522 9 -8 -20 -70 -119 -258z"/>
<path d="M2586 4134 c-11 -25 -29 -41 -56 -52 -38 -16 -40 -19 -40 -64 0 -42
3 -48 21 -48 12 0 36 -15 55 -34 30 -30 34 -40 34 -84 0 -60 -30 -104 -85
-123 -30 -11 -35 -18 -39 -53 -13 -103 -13 -106 2 -106 8 0 30 -16 49 -35 l35
-35 84 26 c46 14 88 22 94 19 6 -4 10 12 10 40 0 40 5 52 34 81 19 19 43 34
55 34 20 0 21 4 21 164 l0 164 -30 12 c-35 15 -70 59 -70 89 0 21 -8 24 -111
35 -44 5 -46 4 -63 -30z m174 -82 c0 -10 -135 -112 -149 -112 -28 0 -5 29 61
77 63 47 88 56 88 35z"/>
<path d="M3162 3585 c-84 -6 -154 -14 -155 -16 -2 -2 -9 -19 -17 -37 -16 -40
-52 -70 -95 -78 -31 -5 -35 -10 -45 -57 -25 -116 -24 -131 3 -146 14 -7 33
-28 43 -47 17 -31 21 -33 59 -28 50 5 266 24 283 24 6 0 12 12 12 26 0 41 62
94 108 94 l37 0 26 92 27 92 -24 19 c-14 10 -31 32 -39 48 -18 33 0 32 -223
14z"/>
</g>
</svg>
